<svg
  xmlns="http://www.w3.org/2000/svg"
  viewBox="32 40 340 340"
  role="img"
  aria-labelledby="favicon-title"
>
  <title id="favicon-title">Percy</title>
  <path
    fill="#7ea6f8"
    transform="translate(202 0) scale(0.94 1) translate(-202 0)"
    fill-rule="evenodd"
    clip-rule="evenodd"
    d="
      M202 50
      C207 65 213 80 216 87
      L208 129
      L229 87
      C263 99 293 132 301 177
      C305 204 301 247 310 273
      C314 285 323 291 334 293
      C325 318 284 342 246 359
      C228 368 211 377 202 379
      C192 376 174 368 156 359
      C118 341 78 318 69 293
      C80 291 89 282 93 268
      C102 239 96 196 103 163
      C113 123 141 99 180 87
      L195 129
      L187 88
      C192 76 197 63 202 50
      Z

      M149 191
      C162 197 177 203 190 211
      C183 224 174 229 163 228
      C153 227 149 216 149 191
      Z

      M255 191
      C242 197 227 203 214 211
      C221 224 230 229 241 228
      C251 227 255 216 255 191
      Z

      M188 91
      L197 131
      L192 91
      Z

      M216 91
      L206 131
      L212 91
      Z
    "
  />
</svg>
